<svg width="24" height="24" viewBox="0 0 24 24" fill="none" xmlns="http://www.w3.org/2000/svg">
<path d="M16.2 11.375L12.5 7.675L13.8 6.375C14.3 5.875 15 5.875 15.5 6.375L17.5 8.375C17.7 8.675 17.8 8.975 17.8 9.275C17.8 9.575 17.7 9.875 17.4 10.075L16.2 11.375ZM6.9 13.375L11.8 8.375L15.5 12.075L10.6 16.975L6.9 13.375ZM11.1 10.575L8.3 13.375L9 14.075L11.8 11.275L11.1 10.575ZM6.4 14.275L6 17.375C6 17.575 6 17.675 6.1 17.775C6.2 17.875 6.4 17.975 6.5 17.875L9.6 17.475L6.4 14.275Z" fill="#1A4A44"/>
</svg>
