<svg width="40" height="40" viewBox="0 0 40 40" fill="none" xmlns="http://www.w3.org/2000/svg">
<path d="M16.6667 39.7778C7.22222 38.1111 0 29.8889 0 20C0 9 9 0 20 0C31 0 40 9 40 20C40 29.8889 32.7778 38.1111 23.3333 39.7778L22.2222 38.8889H17.7778L16.6667 39.7778Z" fill="#1778F2"/>
<path d="M27.7778 25.5556L28.6667 20H23.3333V16.1111C23.3333 14.5556 23.8889 13.3333 26.3333 13.3333H28.8889V8.22222C27.4444 8 25.8889 7.77778 24.4444 7.77778C19.8889 7.77778 16.6667 10.5556 16.6667 15.5556V20H11.6667V25.5556H16.6667V39.6667C17.7778 39.8889 18.8889 40 20 40C21.1111 40 22.2222 39.8889 23.3333 39.6667V25.5556H27.7778Z" fill="white"/>
</svg>
