<svg width="29" height="29" viewBox="0 0 29 29" fill="none" xmlns="http://www.w3.org/2000/svg">
<path d="M6.5 11C7.32843 11 8 10.3284 8 9.5C8 8.67157 7.32843 8 6.5 8C5.67157 8 5 8.67157 5 9.5C5 10.3284 5.67157 11 6.5 11Z" fill="white"/>
<path d="M12.5 11H21.5C21.8978 11 22.2794 10.842 22.5607 10.5607C22.842 10.2794 23 9.89782 23 9.5C23 9.10218 22.842 8.72064 22.5607 8.43934C22.2794 8.15804 21.8978 8 21.5 8H12.5C12.1022 8 11.7206 8.15804 11.4393 8.43934C11.158 8.72064 11 9.10218 11 9.5C11 9.89782 11.158 10.2794 11.4393 10.5607C11.7206 10.842 12.1022 11 12.5 11Z" fill="white"/>
<path d="M6.5 16C7.32843 16 8 15.3284 8 14.5C8 13.6716 7.32843 13 6.5 13C5.67157 13 5 13.6716 5 14.5C5 15.3284 5.67157 16 6.5 16Z" fill="white"/>
<path d="M21.5 13H12.5C12.1022 13 11.7206 13.158 11.4393 13.4393C11.158 13.7206 11 14.1022 11 14.5C11 14.8978 11.158 15.2794 11.4393 15.5607C11.7206 15.842 12.1022 16 12.5 16H21.5C21.8978 16 22.2794 15.842 22.5607 15.5607C22.842 15.2794 23 14.8978 23 14.5C23 14.1022 22.842 13.7206 22.5607 13.4393C22.2794 13.158 21.8978 13 21.5 13Z" fill="white"/>
<path d="M6.5 21C7.32843 21 8 20.3284 8 19.5C8 18.6716 7.32843 18 6.5 18C5.67157 18 5 18.6716 5 19.5C5 20.3284 5.67157 21 6.5 21Z" fill="white"/>
<path d="M21.5 18H12.5C12.1022 18 11.7206 18.158 11.4393 18.4393C11.158 18.7206 11 19.1022 11 19.5C11 19.8978 11.158 20.2794 11.4393 20.5607C11.7206 20.842 12.1022 21 12.5 21H21.5C21.8978 21 22.2794 20.842 22.5607 20.5607C22.842 20.2794 23 19.8978 23 19.5C23 19.1022 22.842 18.7206 22.5607 18.4393C22.2794 18.158 21.8978 18 21.5 18Z" fill="white"/>
</svg>
