<svg width="24" height="24" viewBox="0 0 24 24" fill="none" xmlns="http://www.w3.org/2000/svg">
<path d="M16.4238 12.2012C16.4238 12.5644 16.4238 12.9262 16.4238 13.2893C16.4238 13.8373 16.4238 14.3852 16.4238 14.9332C16.4238 15.1154 16.429 15.2976 16.4054 15.4785C16.4146 15.409 16.4238 15.3396 16.4329 15.2688C16.408 15.4444 16.3621 15.6135 16.294 15.7774C16.3202 15.7145 16.3464 15.6516 16.3726 15.59C16.3045 15.7486 16.2179 15.898 16.1131 16.0344C16.1537 15.9819 16.1957 15.9282 16.2363 15.8757C16.1314 16.0108 16.0095 16.1327 15.8745 16.2375C15.9269 16.1969 15.9807 16.155 16.0331 16.1143C15.8955 16.2192 15.7473 16.307 15.5887 16.3739C15.6516 16.3477 15.7145 16.3214 15.7762 16.2952C15.6136 16.3634 15.4432 16.4093 15.2675 16.4342C15.337 16.425 15.4065 16.4158 15.4773 16.4067C15.2033 16.442 14.9175 16.425 14.6422 16.425C14.1192 16.425 13.5974 16.425 13.0744 16.425C12.4333 16.425 11.791 16.425 11.1499 16.425C10.6033 16.425 10.0553 16.425 9.50868 16.425C9.2701 16.425 9.03151 16.4263 8.79423 16.425C8.70247 16.425 8.61202 16.4184 8.52156 16.4067C8.59104 16.4158 8.66052 16.425 8.73131 16.4342C8.55565 16.4093 8.38654 16.3634 8.22268 16.2952C8.2856 16.3214 8.34852 16.3477 8.41014 16.3739C8.25152 16.3057 8.10207 16.2192 7.96574 16.1143C8.01817 16.155 8.07192 16.1969 8.12436 16.2375C7.98933 16.1327 7.86742 16.0108 7.76254 15.8757C7.80318 15.9282 7.84513 15.9819 7.88577 16.0344C7.7809 15.8967 7.69307 15.7486 7.62621 15.59C7.65243 15.6529 7.67865 15.7158 7.70486 15.7774C7.6367 15.6149 7.59081 15.4444 7.56591 15.2688C7.57508 15.3383 7.58426 15.4077 7.59344 15.4785C7.55804 15.2045 7.57508 14.9188 7.57508 14.6435C7.57508 14.1204 7.57508 13.5987 7.57508 13.0756C7.57508 12.4346 7.57508 11.7922 7.57508 11.1512C7.57508 10.6045 7.57508 10.0566 7.57508 9.50993C7.57508 9.27135 7.57377 9.03276 7.57508 8.79549C7.57508 8.70372 7.58164 8.61327 7.59344 8.52282C7.58426 8.59229 7.57508 8.66177 7.56591 8.73256C7.59081 8.5569 7.6367 8.38779 7.70486 8.22393C7.67865 8.28685 7.65243 8.34978 7.62621 8.41139C7.69438 8.25277 7.7809 8.10332 7.88577 7.96699C7.84513 8.01942 7.80318 8.07317 7.76254 8.12561C7.86742 7.99059 7.98933 7.86867 8.12436 7.7638C8.07192 7.80444 8.01817 7.84638 7.96574 7.88702C8.10338 7.78215 8.25152 7.69432 8.41014 7.62746C8.34721 7.65368 8.28429 7.6799 8.22268 7.70612C8.38523 7.63795 8.55565 7.59207 8.73131 7.56716C8.66183 7.57634 8.59235 7.58551 8.52156 7.59469C8.68018 7.57371 8.84012 7.57634 9.00005 7.57634C9.23208 7.57634 9.46411 7.57634 9.69614 7.57634C10.2625 7.57634 10.8301 7.57634 11.3964 7.57634C11.5301 7.57634 11.6651 7.57634 11.7988 7.57634C12.0007 7.57634 12.2118 7.48851 12.3547 7.34562C12.491 7.20928 12.5933 6.98511 12.5854 6.78979C12.5762 6.5866 12.5094 6.37554 12.3547 6.23396C12.2013 6.09238 12.0112 6.00324 11.7988 6.00324C11.4672 6.00324 11.1355 6.00324 10.8052 6.00324C10.269 6.00324 9.73285 6.00324 9.19668 6.00324C9.0669 6.00324 8.93581 6.00324 8.80603 6.00324C8.35114 6.00324 7.92117 6.11467 7.51478 6.31524C7.2893 6.42666 7.08087 6.58266 6.89472 6.75046C6.71119 6.91695 6.55126 7.11883 6.42017 7.32726C6.14619 7.75986 6.00592 8.28423 6.0033 8.79418C6.00199 8.9777 6.0033 9.16123 6.0033 9.34607C6.0033 9.79702 6.0033 10.248 6.0033 10.6989C6.0033 11.2666 6.0033 11.8329 6.0033 12.4005C6.0033 12.9327 6.0033 13.465 6.0033 13.9972C6.0033 14.3433 6.0033 14.6907 6.0033 15.0367C6.0033 15.0931 6.0033 15.1495 6.0033 15.2072C6.00461 15.6935 6.13308 16.1799 6.3756 16.602C6.8685 17.4606 7.80974 17.9955 8.79554 17.9994C8.99874 18.0007 9.20193 17.9994 9.40512 17.9994C9.86656 17.9994 10.328 17.9994 10.7894 17.9994C11.3584 17.9994 11.9273 17.9994 12.4963 17.9994C13.0219 17.9994 13.5476 17.9994 14.0733 17.9994C14.4049 17.9994 14.7366 17.9994 15.0683 17.9994C15.6464 17.9994 16.2206 17.8841 16.7095 17.5589C17.1251 17.2837 17.4921 16.9048 17.7045 16.4486C17.812 16.2166 17.9064 15.9793 17.9457 15.725C17.9732 15.548 17.9968 15.371 17.9968 15.1914C17.9968 14.8021 17.9968 14.4141 17.9968 14.0247C17.9968 13.5082 17.9968 12.993 17.9968 12.4765C17.9968 12.3848 17.9968 12.2943 17.9968 12.2026C17.9968 12.0007 17.909 11.7896 17.7661 11.6467C17.6298 11.5104 17.4056 11.4081 17.2103 11.416C17.0071 11.4252 16.7961 11.492 16.6545 11.6467C16.5129 11.7988 16.4238 11.9876 16.4238 12.2012Z" fill="#1A4A44"/>
<path d="M14.3001 7.57367C14.6278 7.57367 14.9568 7.57367 15.2846 7.57367C15.8076 7.57367 16.3294 7.57367 16.8524 7.57367C16.9717 7.57367 17.091 7.57367 17.2103 7.57367C17.4122 7.57367 17.6232 7.48584 17.7661 7.34295C17.9025 7.20661 18.0047 6.98245 17.9969 6.78712C17.9877 6.58393 17.9208 6.37287 17.7661 6.23129C17.6128 6.08971 17.4227 6.00057 17.2103 6.00057C16.8826 6.00057 16.5535 6.00057 16.2258 6.00057C15.7028 6.00057 15.181 6.00057 14.658 6.00057C14.5387 6.00057 14.4194 6.00057 14.3001 6.00057C14.0982 6.00057 13.8871 6.0884 13.7442 6.23129C13.6079 6.36763 13.5057 6.59179 13.5135 6.78712C13.5227 6.99031 13.5896 7.20137 13.7442 7.34295C13.8976 7.48453 14.0864 7.57367 14.3001 7.57367Z" fill="#1A4A44"/>
<path d="M17.9968 9.69735C17.9968 9.36962 17.9968 9.04058 17.9968 8.71285C17.9968 8.1898 17.9968 7.66805 17.9968 7.145C17.9968 7.0257 17.9969 6.90641 17.9969 6.78712C17.9969 6.58524 17.909 6.37418 17.7661 6.23129C17.6298 6.09496 17.4056 5.99271 17.2103 6.00057C17.0071 6.00975 16.796 6.0766 16.6545 6.23129C16.5129 6.38467 16.4237 6.57475 16.4237 6.78712C16.4237 7.11485 16.4237 7.44389 16.4237 7.77161C16.4237 8.29467 16.4237 8.81641 16.4237 9.33947C16.4237 9.45876 16.4237 9.57805 16.4237 9.69735C16.4237 9.89923 16.5116 10.1103 16.6545 10.2532C16.7908 10.3895 17.015 10.4918 17.2103 10.4839C17.4135 10.4747 17.6245 10.4079 17.7661 10.2532C17.9077 10.0998 17.9968 9.91103 17.9968 9.69735Z" fill="#1A4A44"/>
<path d="M12.5657 12.5433C12.7388 12.3703 12.9131 12.1959 13.0862 12.0229C13.4991 11.61 13.9133 11.1957 14.3263 10.7828C14.8257 10.2833 15.3252 9.78386 15.826 9.28309C16.2599 8.84918 16.6925 8.41658 17.1264 7.98267C17.3361 7.77292 17.5498 7.56448 17.7569 7.35212C17.7596 7.34949 17.7622 7.34688 17.7661 7.34295C17.909 7.20006 17.9969 6.989 17.9969 6.78712C17.9969 6.59442 17.9116 6.3637 17.7661 6.23129C17.6167 6.09365 17.42 5.9914 17.2103 6.00057C17.0019 6.00975 16.8052 6.08054 16.6545 6.23129C16.4814 6.40433 16.3071 6.57868 16.134 6.75172C15.7211 7.16466 15.3068 7.5789 14.8939 7.99184C14.3945 8.4913 13.895 8.99076 13.3942 9.49153C12.9603 9.92544 12.5277 10.358 12.0938 10.792C11.8841 11.0017 11.6704 11.2101 11.4633 11.4225C11.4606 11.4251 11.458 11.4277 11.4541 11.4317C11.3112 11.5746 11.2234 11.7856 11.2234 11.9875C11.2234 12.1802 11.3086 12.4109 11.4541 12.5433C11.6035 12.681 11.8002 12.7832 12.0099 12.7741C12.2183 12.7649 12.4163 12.6941 12.5657 12.5433Z" fill="#1A4A44"/>
</svg>
