<svg width="40" height="40" viewBox="0 0 40 40" fill="none" xmlns="http://www.w3.org/2000/svg">
<path d="M38.682 7.344C38.194 7.195 37.662 7.383 37.382 7.809L36.512 9.116C32.895 3.655 26.691 0.193001 20 0.193001C11.86 0.193001 4.433 5.311 1.52 12.927C0.915997 14.505 1.707 16.273 3.285 16.877C4.863 17.479 6.631 16.69 7.235 15.112C9.248 9.848 14.378 6.311 20 6.311C24.594 6.311 28.857 8.674 31.361 12.41L29.965 12.625C29.459 12.704 29.065 13.106 28.997 13.614C28.928 14.122 29.201 14.614 29.668 14.824L37.825 18.494C37.833 18.497 37.841 18.498 37.847 18.5C37.992 18.567 38.15 18.607 38.32 18.607C38.838 18.607 39.271 18.254 39.4 17.777C39.435 17.67 39.458 17.558 39.459 17.444L39.5 8.457C39.505 7.944 39.17 7.492 38.682 7.344Z" fill="black"/>
<path d="M36.715 23.122C35.135 22.518 33.369 23.31 32.766 24.889C30.753 30.153 25.622 33.69 20 33.69C15.405 33.69 11.142 31.328 8.638 27.59L10.034 27.374C10.541 27.295 10.934 26.895 11.002 26.385C11.071 25.878 10.798 25.385 10.331 25.176L2.174 21.505C2.166 21.502 2.158 21.501 2.15 21.499C2.007 21.432 1.848 21.393 1.679 21.393C1.16 21.393 0.727002 21.747 0.597002 22.223C0.564002 22.329 0.541002 22.442 0.540002 22.555L0.500002 31.543C0.495002 32.057 0.831002 32.508 1.318 32.654C1.807 32.804 2.337 32.617 2.619 32.189L3.489 30.88C7.105 36.342 13.307 39.806 20 39.806C28.141 39.806 35.566 34.687 38.479 27.07C39.083 25.494 38.293 23.727 36.715 23.122Z" fill="black"/>
</svg>
