<svg width="24" height="24" viewBox="0 0 24 24" fill="none" xmlns="http://www.w3.org/2000/svg">
<path fill-rule="evenodd" clip-rule="evenodd" d="M16.7932 11.0191C16.5151 10.0342 15.9676 9.14639 15.2124 8.45562C14.4573 7.76485 13.5244 7.29846 12.5187 7.10891C11.5129 6.91936 10.4743 7.01416 9.51946 7.38265C8.56467 7.75115 7.73161 8.37872 7.11399 9.19478C6.49637 10.0109 6.11867 10.9831 6.02338 12.002C5.9281 13.021 6.11899 14.0464 6.5746 14.9628C7.03021 15.8793 7.73247 16.6504 8.60239 17.1895C9.47231 17.7287 10.4754 18.0144 11.4988 18.0146C11.7641 18.0146 12.0184 18.12 12.206 18.3075C12.3936 18.4951 12.4989 18.7494 12.4989 19.0147C12.4989 19.2799 12.3936 19.5343 12.206 19.7218C12.0184 19.9094 11.7641 20.0148 11.4988 20.0148C10.1816 20.0144 8.88767 19.6673 7.74722 19.0081C6.60677 18.3489 5.66002 17.4011 5.00221 16.2598C4.34441 15.1186 3.99875 13.8243 4 12.507C4.00126 11.1898 4.34939 9.89611 5.00937 8.75613C5.66935 7.61616 6.6179 6.67009 7.75961 6.01311C8.90131 5.35612 10.1959 5.01139 11.5131 5.0136C12.8304 5.0158 14.1238 5.36486 15.2633 6.02567C16.4028 6.68647 17.3482 7.6357 18.0043 8.77788V6.02967C18.0001 5.89601 18.0228 5.76286 18.071 5.63813C18.1192 5.5134 18.192 5.39963 18.2851 5.30359C18.3781 5.20754 18.4895 5.13118 18.6127 5.07903C18.7358 5.02687 18.8682 5 19.0019 5C19.1357 5 19.268 5.02687 19.3912 5.07903C19.5143 5.13118 19.6257 5.20754 19.7188 5.30359C19.8118 5.39963 19.8846 5.5134 19.9328 5.63813C19.9811 5.76286 20.0037 5.89601 19.9995 6.02967V12.0161C19.9999 12.1473 19.9744 12.2773 19.9243 12.3985C19.8743 12.5198 19.8008 12.63 19.7081 12.7228C19.6153 12.8155 19.5051 12.889 19.3838 12.939C19.2626 12.9891 19.1326 13.0146 19.0014 13.0142H13.015C12.7558 13.006 12.5101 12.8973 12.3297 12.7111C12.1493 12.5249 12.0485 12.2759 12.0485 12.0166C12.0485 11.7574 12.1493 11.5083 12.3297 11.3221C12.5101 11.136 12.7558 11.0273 13.015 11.0191H16.7932Z" fill="#1A4A44"/>
</svg>
