<svg width="16" height="16" viewBox="0 0 16 16" fill="none" xmlns="http://www.w3.org/2000/svg">
<path d="M11.891 9.992C12.0786 9.80423 12.3332 9.69868 12.5986 9.69859C12.8641 9.6985 13.1187 9.80386 13.3065 9.9915C13.4943 10.1791 13.5998 10.4337 13.5999 10.6991C13.6 10.9646 13.4946 11.2192 13.307 11.407L9.007 15.707C8.81947 15.8945 8.56517 15.9998 8.3 15.9998C8.03484 15.9998 7.78053 15.8945 7.593 15.707L3.293 11.407C3.10536 11.2191 3.00005 10.9643 3.00024 10.6988C3.00043 10.4332 3.1061 10.1786 3.294 9.991C3.48191 9.80336 3.73666 9.69805 4.00221 9.69824C4.26776 9.69842 4.52236 9.80409 4.71 9.992L8.3 13.583L11.891 9.992ZM11.891 6.008L8.3 2.417L4.709 6.008C4.52136 6.19577 4.26681 6.30132 4.00136 6.30141C3.7359 6.3015 3.48127 6.19614 3.2935 6.0085C3.10573 5.82086 3.00019 5.56631 3.00009 5.30085C3 5.0354 3.10536 4.78077 3.293 4.593L7.593 0.293C7.78053 0.105529 8.03484 0.000213623 8.3 0.000213623C8.56517 0.000213623 8.81947 0.105529 9.007 0.293L13.307 4.593C13.3999 4.68598 13.4736 4.79634 13.5239 4.9178C13.5741 5.03925 13.6 5.16941 13.5999 5.30085C13.5999 5.43229 13.5739 5.56244 13.5236 5.68386C13.4732 5.80528 13.3995 5.91559 13.3065 6.0085C13.2135 6.10141 13.1032 6.1751 12.9817 6.22536C12.8603 6.27561 12.7301 6.30146 12.5986 6.30141C12.4672 6.30136 12.3371 6.27543 12.2156 6.22508C12.0942 6.17474 11.9839 6.10098 11.891 6.008Z" fill="#1A4A44"/>
</svg>
