<svg width="44" height="44" viewBox="0 0 44 44" fill="none" xmlns="http://www.w3.org/2000/svg">
<path d="M31.2199 5.00368C31.093 5.01879 30.9761 5.07953 30.8913 5.17442C30.8066 5.26931 30.7599 5.39174 30.7601 5.51851V11.667H17.3696C17.2321 11.6678 17.1006 11.7223 17.0034 11.8186C16.9062 11.915 16.8512 12.0455 16.8504 12.1819V19.2865C16.8512 19.4228 16.9062 19.5533 17.0034 19.6497C17.1006 19.7461 17.2321 19.8006 17.3696 19.8013H30.7601V25.9499C30.7628 26.051 30.7953 26.1491 30.8536 26.232C30.9119 26.315 30.9934 26.3793 31.0881 26.4168C31.1828 26.4544 31.2865 26.4636 31.3864 26.4433C31.4863 26.4231 31.578 26.3743 31.6503 26.3029L41.8528 16.0946C41.9472 15.998 42 15.8687 42 15.7342C42 15.5996 41.9472 15.4704 41.8528 15.3738L31.6503 5.15078C31.5944 5.09561 31.5266 5.05372 31.4521 5.02825C31.3776 5.00277 31.2982 4.99437 31.2199 5.00368ZM12.6688 16.5505C12.5511 16.5631 12.4411 16.615 12.357 16.6976L2.1545 26.906C2.10555 26.9541 2.06669 27.0114 2.04017 27.0745C2.01365 27.1376 2 27.2053 2 27.2737C2 27.3421 2.01365 27.4097 2.04017 27.4729C2.06669 27.536 2.10555 27.5933 2.1545 27.6414L12.357 37.8497C12.4302 37.9217 12.5233 37.9707 12.6244 37.9904C12.7256 38.01 12.8304 37.9995 12.9255 37.9601C13.0207 37.9208 13.102 37.8544 13.1592 37.7693C13.2163 37.6842 13.2468 37.5843 13.2468 37.482V31.3482H26.6378C26.7752 31.3474 26.9068 31.293 27.004 31.1966C27.1011 31.1002 27.1561 30.9697 27.1569 30.8334V23.7287C27.1585 23.66 27.1462 23.5916 27.1209 23.5276C27.0955 23.4636 27.0576 23.4053 27.0092 23.356C26.9609 23.3067 26.9032 23.2675 26.8394 23.2405C26.7756 23.2136 26.7071 23.1996 26.6378 23.1992H13.2468V17.0654C13.2468 16.9927 13.2314 16.9208 13.2015 16.8544C13.1717 16.7881 13.1281 16.7287 13.0736 16.6801C13.019 16.6316 12.9548 16.5949 12.8851 16.5726C12.8154 16.5503 12.7417 16.5428 12.6688 16.5505Z" fill="#1A4A44"/>
</svg>
