<svg width="24" height="24" viewBox="0 0 24 24" fill="none" xmlns="http://www.w3.org/2000/svg">
<path d="M12 5.25001C12.1636 5.25001 12.3227 5.31361 12.45 5.43641L15.9045 8.85911L15.0091 9.76361L12.6364 7.41361V15.35H11.3636V7.41361L8.99091 9.76361L8.09546 8.85911L11.55 5.43641C11.6727 5.31361 11.8364 5.25001 12 5.25001Z" fill="#1A4A44"/>
<path d="M17.7273 13.2046V17.1818C17.7273 17.3318 17.6045 17.4773 17.4545 17.4773H6.54545C6.39545 17.4773 6.27273 17.3318 6.27273 17.1818V13.2046H5V17.1818C5 18.0318 5.69545 18.75 6.54545 18.75H17.4545C18.3045 18.75 19 18.0318 19 17.1818V13.2046H17.7273Z" fill="#1A4A44"/>
</svg>
