<svg width="30" height="30" viewBox="0 0 30 30" fill="none" xmlns="http://www.w3.org/2000/svg">
<path fill-rule="evenodd" clip-rule="evenodd" d="M15 30C23.2843 30 30 23.2843 30 15C30 6.71573 23.2843 0 15 0C6.71573 0 0 6.71573 0 15C0 23.2843 6.71573 30 15 30ZM19 27.382C17.7479 27.7833 16.4132 28 15.0279 28C13.622 28 12.2682 27.7768 11 27.364V24.55C11 24.274 10.776 24.05 10.5 24.05C10.224 24.05 10 24.274 10 24.55V26.992C8.06491 26.1797 6.36784 24.9127 5.04248 23.3247C5.39564 20.1205 7.91191 17.551 11.119 17.048C12.09 17.68 13.752 18.05 15 18.05C16.248 18.05 17.91 17.68 18.881 17.048C22.1077 17.5541 24.6352 20.1521 24.9638 23.3836C23.633 24.9592 21.9342 26.214 20 27.0153V24.55C20 24.274 19.776 24.05 19.5 24.05C19.224 24.05 19 24.274 19 24.55V27.382ZM15 17C12.243 17 10 14.757 10 12C10 9.243 12.243 7 15 7C17.757 7 20 9.243 20 12C20 14.757 17.757 17 15 17Z" fill="#B5BFBE"/>
</svg>
