<svg width="24" height="24" viewBox="0 0 24 24" fill="none" xmlns="http://www.w3.org/2000/svg">
<path d="M12 2C6.46666 2 2 6.46666 2 12C2 17.5334 6.46666 22 12 22C17.5334 22 22 17.5334 22 12C22 6.46666 17.5334 2 12 2ZM17.0889 15.3777C17.5555 15.8445 17.5555 16.6 17.0889 17.0666C16.8445 17.3111 16.5555 17.4222 16.2445 17.4222C15.9334 17.4222 15.6223 17.3111 15.4 17.0666L12.0666 13.7334L8.71111 17.0666C8.46666 17.3111 8.17777 17.4222 7.86666 17.4222C7.55555 17.4222 7.24445 17.3111 7.02223 17.0666C6.55555 16.6 6.55555 15.8445 7.02223 15.3777L10.3777 12.0223L7.02223 8.68889C6.55555 8.22223 6.55555 7.46666 7.02223 7C7.48889 6.53334 8.24445 6.53334 8.71111 7L12.0666 10.3555L15.4222 7C15.8889 6.53334 16.6445 6.53334 17.1111 7C17.5777 7.46666 17.5777 8.22223 17.1111 8.68889L13.7555 12.0445L17.0889 15.3777Z" fill="black" style="fill:black;fill-opacity:1;"/>
</svg>
