<svg width="24" height="24" viewBox="0 0 24 24" fill="none" xmlns="http://www.w3.org/2000/svg">
<path d="M12 4C7.57333 4 4 7.57333 4 12C4 16.4267 7.57333 20 12 20C16.4267 20 20 16.4267 20 12C20 7.57333 16.4267 4 12 4ZM16.0711 14.7022C16.4444 15.0756 16.4444 15.68 16.0711 16.0533C15.8756 16.2489 15.6444 16.3378 15.3956 16.3378C15.1467 16.3378 14.8978 16.2489 14.72 16.0533L12.0533 13.3867L9.36889 16.0533C9.17333 16.2489 8.94222 16.3378 8.69333 16.3378C8.44444 16.3378 8.19556 16.2489 8.01778 16.0533C7.64444 15.68 7.64444 15.0756 8.01778 14.7022L10.7022 12.0178L8.01778 9.35111C7.64444 8.97778 7.64444 8.37333 8.01778 8C8.39111 7.62667 8.99556 7.62667 9.36889 8L12.0533 10.6844L14.7378 8C15.1111 7.62667 15.7156 7.62667 16.0889 8C16.4622 8.37333 16.4622 8.97778 16.0889 9.35111L13.4044 12.0356L16.0711 14.7022Z" fill="#1A4A44" style="fill:#1A4A44;fill:color(display-p3 0.1015 0.2900 0.2680);fill-opacity:1;"/>
</svg>
