<svg width="24" height="24" viewBox="0 0 24 24" fill="none" xmlns="http://www.w3.org/2000/svg">
<path d="M12 15.35C12.1636 15.35 12.3227 15.2864 12.45 15.1636L15.9045 11.7409L15.0091 10.8364L12.6364 13.1864V5.25H11.3636V13.1864L8.99091 10.8364L8.09546 11.7409L11.55 15.1636C11.6727 15.2864 11.8364 15.35 12 15.35Z" fill="#1A4A44"/>
<path d="M17.7273 13.2046V17.1818C17.7273 17.3318 17.6045 17.4773 17.4545 17.4773H6.54545C6.39545 17.4773 6.27273 17.3318 6.27273 17.1818V13.2046H5V17.1818C5 18.0318 5.69545 18.75 6.54545 18.75H17.4545C18.3045 18.75 19 18.0318 19 17.1818V13.2046H17.7273Z" fill="#1A4A44"/>
</svg>
