<svg width="24" height="24" viewBox="0 0 24 24" fill="none" xmlns="http://www.w3.org/2000/svg">
<path fill-rule="evenodd" clip-rule="evenodd" d="M6.93724 4C5.31483 4 4 5.31483 4 6.93724V8.96215C4 9.46529 4.40821 9.8735 4.91136 9.8735C5.41544 9.8735 5.82271 9.46529 5.82271 8.96215V6.93724C5.82271 6.32208 6.32206 5.82274 6.93721 5.82274H8.96212C9.46527 5.82274 9.87348 5.41547 9.87348 4.91138C9.87348 4.40824 9.46527 4.00002 8.96212 4.00002L6.93724 4ZM6.93724 20C5.31483 20 4 18.6852 4 17.0628V15.0379C4 14.5347 4.40821 14.1265 4.91136 14.1265C5.41544 14.1265 5.82271 14.5347 5.82271 15.0379V17.0628C5.82271 17.6779 6.32206 18.1773 6.93721 18.1773H8.96212C9.46527 18.1773 9.87348 18.5845 9.87348 19.0886C9.87348 19.5918 9.46527 20 8.96212 20L6.93724 20ZM20 6.93724C20 5.31483 18.6852 4 17.0628 4H15.0379C14.5347 4 14.1265 4.40821 14.1265 4.91136C14.1265 5.41544 14.5347 5.82271 15.0379 5.82271H17.0628C17.6779 5.82271 18.1773 6.32206 18.1773 6.93721V8.96212C18.1773 9.46527 18.5855 9.87348 19.0886 9.87348C19.5918 9.87348 20 9.46527 20 8.96212L20 6.93724ZM17.0628 20C18.6852 20 20 18.6852 20 17.0628V15.0379C20 14.5347 19.5918 14.1265 19.0886 14.1265C18.5846 14.1265 18.1773 14.5347 18.1773 15.0379V17.0628C18.1773 17.6779 17.6779 18.1773 17.0628 18.1773H15.0379C14.5347 18.1773 14.1265 18.5845 14.1265 19.0886C14.1265 19.5918 14.5347 20 15.0379 20L17.0628 20Z" fill="#1A4A44" style="fill:#1A4A44;fill:color(display-p3 0.1015 0.2900 0.2680);fill-opacity:1;"/>
</svg>
