<svg width="24" height="24" viewBox="0 0 24 24" fill="none" xmlns="http://www.w3.org/2000/svg">
<path d="M20.0918 12.7556H3.88486C3.39586 12.7556 3 12.3597 3 11.8707C3 11.3817 3.39586 10.9858 3.88486 10.9858H20.1151C20.6041 10.9858 21 11.3817 21 11.8707C21 12.3597 20.6041 12.7556 20.0918 12.7556Z" fill="#1A4A44" style="fill:#1A4A44;fill:color(display-p3 0.1015 0.2900 0.2680);fill-opacity:1;"/>
<path d="M20.0918 5.76973H3.88486C3.39586 5.76973 3 5.37387 3 4.88486C3 4.39586 3.39586 4 3.88486 4H20.1151C20.6041 4 21 4.39586 21 4.88486C21 5.37387 20.6041 5.76973 20.0918 5.76973Z" fill="#1A4A44" style="fill:#1A4A44;fill:color(display-p3 0.1015 0.2900 0.2680);fill-opacity:1;"/>
<path d="M20.0918 19.7412H3.88486C3.39586 19.7412 3 19.3454 3 18.8564C3 18.3674 3.39586 17.9715 3.88486 17.9715H20.1151C20.6041 17.9715 21 18.3674 21 18.8564C21 19.3454 20.6041 19.7412 20.0918 19.7412Z" fill="#1A4A44" style="fill:#1A4A44;fill:color(display-p3 0.1015 0.2900 0.2680);fill-opacity:1;"/>
</svg>
