<svg width="24" height="24" viewBox="0 0 24 24" fill="none" xmlns="http://www.w3.org/2000/svg">
<path fill-rule="evenodd" clip-rule="evenodd" d="M18.6815 17.2673L16.3905 14.9763C17.0891 13.9955 17.5 12.7956 17.5 11.5C17.5 8.18689 14.8131 5.5 11.5 5.5C8.18689 5.5 5.5 8.18689 5.5 11.5C5.5 14.8131 8.18689 17.5 11.5 17.5C12.7956 17.5 13.9955 17.0891 14.9763 16.3906L17.2673 18.6815C17.6578 19.072 18.291 19.072 18.6815 18.6815C19.072 18.291 19.072 17.6578 18.6815 17.2673ZM11.5 7.5C13.7085 7.5 15.5 9.29144 15.5 11.5C15.5 13.7086 13.7085 15.5 11.5 15.5C9.29146 15.5 7.5 13.7086 7.5 11.5C7.5 9.29144 9.29146 7.5 11.5 7.5Z" fill="#B5BFBE"/>
</svg>
