<svg width="24" height="24" viewBox="0 0 24 24" fill="none" xmlns="http://www.w3.org/2000/svg">
<path fill-rule="evenodd" clip-rule="evenodd" d="M15.4138 10.4483C15.4138 7.70591 13.1907 5.48276 10.4483 5.48276C7.70592 5.48276 5.48278 7.70591 5.48278 10.4483C5.48278 13.1907 7.70592 15.4138 10.4483 15.4138C13.1907 15.4138 15.4138 13.1907 15.4138 10.4483ZM10.4483 3C14.5619 3 17.8966 6.33471 17.8966 10.4483C17.8966 12.0843 17.3691 13.5971 16.475 14.8259L20.6364 18.9874C21.1212 19.4721 21.1212 20.2581 20.6364 20.7429C20.1516 21.2277 19.3656 21.2277 18.8808 20.7429L14.7015 16.5636C13.4956 17.4039 12.0295 17.8966 10.4483 17.8966C6.33473 17.8966 3.00001 14.5619 3.00001 10.4483C3.00001 6.33471 6.33473 3 10.4483 3Z" fill="#1A4A44" style="fill:#1A4A44;fill:color(display-p3 0.1015 0.2900 0.2680);fill-opacity:1;"/>
</svg>
