<svg width="29" height="29" viewBox="0 0 29 29" fill="none" xmlns="http://www.w3.org/2000/svg">
<path d="M22.2504 13.4968C22.1224 13.4152 21.1128 12.812 20.7128 12.628L20.2168 11.428C20.364 11.0312 20.6472 9.9192 20.6968 9.7256C20.7167 9.63749 20.7139 9.54578 20.6887 9.45905C20.6635 9.37231 20.6167 9.29337 20.5528 9.2296L19.7704 8.452C19.7068 8.38778 19.6279 8.34086 19.5411 8.31566C19.4543 8.29046 19.3625 8.28782 19.2744 8.308C19.1272 8.3416 17.9944 8.628 17.572 8.788L16.372 8.292C16.1976 7.908 15.6104 6.924 15.5032 6.7544C15.4558 6.67678 15.3893 6.61263 15.31 6.56809C15.2307 6.52354 15.1413 6.5001 15.0504 6.5H13.9496C13.8592 6.50005 13.7703 6.52295 13.6911 6.56659C13.6119 6.61023 13.5451 6.67319 13.4968 6.7496C13.4152 6.8776 12.812 7.8872 12.628 8.2872L11.428 8.7832C11.0312 8.636 9.9192 8.3528 9.7256 8.3032C9.63749 8.28333 9.54578 8.28612 9.45905 8.3113C9.37231 8.33648 9.29337 8.38324 9.2296 8.4472L8.452 9.2296C8.38778 9.29319 8.34086 9.37212 8.31566 9.45892C8.29046 9.54571 8.28782 9.6375 8.308 9.7256C8.3416 9.8728 8.628 11.0056 8.788 11.428L8.292 12.628C7.908 12.8024 6.924 13.3896 6.7544 13.4968C6.67678 13.5442 6.61263 13.6107 6.56809 13.69C6.52354 13.7693 6.5001 13.8587 6.5 13.9496V15.0488C6.50005 15.1392 6.52295 15.2281 6.56659 15.3073C6.61023 15.3864 6.67319 15.4533 6.7496 15.5016C6.8776 15.5832 7.8872 16.1864 8.2872 16.3704L8.7832 17.5704C8.636 17.9672 8.3528 19.0792 8.3032 19.2728C8.28333 19.3609 8.28612 19.4526 8.3113 19.5393C8.33648 19.6261 8.38324 19.705 8.4472 19.7688L9.2248 20.5464C9.28839 20.6106 9.36732 20.6575 9.45412 20.6827C9.54091 20.7079 9.6327 20.7106 9.7208 20.6904C9.868 20.6568 11.0008 20.3704 11.4232 20.2104L12.6232 20.7064C12.7976 21.0904 13.3848 22.0744 13.492 22.244C13.5396 22.3226 13.6068 22.3875 13.687 22.4324C13.7672 22.4772 13.8577 22.5005 13.9496 22.5H15.0488C15.1392 22.4999 15.2281 22.477 15.3073 22.4334C15.3864 22.3898 15.4533 22.3268 15.5016 22.2504C15.5832 22.1224 16.1864 21.1128 16.3704 20.7128L17.5704 20.2168C17.9672 20.364 19.0792 20.6472 19.2728 20.6968C19.3609 20.7167 19.4526 20.7139 19.5393 20.6887C19.6261 20.6635 19.705 20.6167 19.7688 20.5528L20.5464 19.7752C20.6106 19.7116 20.6575 19.6327 20.6827 19.5459C20.7079 19.4591 20.7106 19.3673 20.6904 19.2792C20.6568 19.132 20.3704 17.9992 20.2104 17.5768L20.7064 16.3768C21.0904 16.2024 22.0744 15.6152 22.244 15.508C22.3226 15.4604 22.3875 15.3932 22.4324 15.313C22.4773 15.2328 22.5005 15.1423 22.5 15.0504V13.9496C22.5007 13.8591 22.4781 13.7698 22.4344 13.6906C22.3907 13.6113 22.3273 13.5445 22.2504 13.4968ZM14.5 17.9832C13.8104 17.9826 13.1366 17.7775 12.5636 17.3938C11.9906 17.0102 11.5443 16.4653 11.281 15.828C11.0177 15.1907 10.9493 14.4897 11.0844 13.8135C11.2196 13.1373 11.5522 12.5164 12.0402 12.0293C12.5282 11.5421 13.1498 11.2107 13.8262 11.0768C14.5026 10.9429 15.2035 11.0125 15.8403 11.277C16.4771 11.5415 17.0212 11.9888 17.4038 12.5625C17.7864 13.1362 17.9902 13.8104 17.9896 14.5C17.9875 15.4243 17.6189 16.31 16.9648 16.9629C16.3106 17.6159 15.4243 17.9828 14.5 17.9832Z" fill="white"/>
</svg>
