<svg width="24" height="24" viewBox="0 0 24 24" fill="none" xmlns="http://www.w3.org/2000/svg">
<path d="M8.66504 20.9999L8.66676 21.0002L8.66847 20.9999H19.215C21.3058 20.9992 22.9995 19.3057 23 17.2147V6.78522C22.9995 4.694 21.3055 3.00024 19.2148 3H4.78522C2.69424 3.00049 1.00049 4.69424 1 6.78522V17.2147C1.00049 19.3054 2.694 20.9997 4.78522 20.9999H8.66504ZM21.0002 6.78522V17.2147C20.9985 18.2003 20.2004 18.9982 19.2148 19.0001H9.66678V4.9998H19.2148C20.2006 5.00176 20.9982 5.79938 21.0002 6.78522ZM2.9998 17.2147V6.78522C3.00151 5.79913 3.79938 5.00176 4.78522 4.9998H7.66673V19.0001H4.78522C3.79962 18.9984 3.00176 18.2005 2.9998 17.2147Z" fill="#1A4A44" style="fill:#1A4A44;fill:color(display-p3 0.1015 0.2900 0.2680);fill-opacity:1;"/>
<path d="M5.06704 8.33281H5.61362C6.16582 8.33281 6.61364 7.88499 6.61364 7.33279C6.61364 6.78034 6.16582 6.33276 5.61362 6.33276H5.06704C4.51459 6.33276 4.06702 6.78034 4.06702 7.33279C4.06702 7.88499 4.51459 8.33281 5.06704 8.33281Z" fill="#1A4A44" style="fill:#1A4A44;fill:color(display-p3 0.1015 0.2900 0.2680);fill-opacity:1;"/>
<path d="M5.06704 11.4788H5.61362C6.16582 11.4788 6.61364 11.031 6.61364 10.4788C6.61364 9.92634 6.16582 9.47876 5.61362 9.47876H5.06704C4.51459 9.47876 4.06702 9.92634 4.06702 10.4788C4.06702 11.0307 4.51459 11.4788 5.06704 11.4788Z" fill="#1A4A44" style="fill:#1A4A44;fill:color(display-p3 0.1015 0.2900 0.2680);fill-opacity:1;"/>
</svg>
