<svg width="24" height="24" viewBox="0 0 24 24" fill="none" xmlns="http://www.w3.org/2000/svg">
<path fill-rule="evenodd" clip-rule="evenodd" d="M9 16.9997C9 17.5497 9.45 17.9997 10 17.9997C10.55 17.9997 11 17.5497 11 16.9997V11.9997C11 11.4497 10.55 10.9997 10 10.9997C9.45 10.9997 9 11.4497 9 11.9997V16.9997ZM13 16.9997C13 17.5497 13.45 17.9997 14 17.9997C14.55 17.9997 15 17.5497 15 16.9997V11.9997C15 11.4497 14.55 10.9997 14 10.9997C13.45 10.9997 13 11.4497 13 11.9997V16.9997ZM5 7.99969H19L18.153 19.0057C18.069 20.1027 17.1 20.9997 16 20.9997H8C6.9 20.9997 5.931 20.1027 5.847 19.0057L5 7.99969ZM21 5.99969C21 6.54969 20.55 6.99969 20 6.99969H4C3.45 6.99969 3 6.54969 3 5.99969C3 5.44969 3.45 4.99969 4 4.99969H7.002C9.062 4.99769 9 2.99969 11 2.99969H13C14.998 2.99969 15.062 4.99769 16.997 4.99969H20C20.55 4.99969 21 5.44969 21 5.99969Z" fill="#1A4A44" style="fill:#1A4A44;fill:color(display-p3 0.1015 0.2900 0.2680);fill-opacity:1;"/>
</svg>
