<svg width="29" height="29" viewBox="0 0 29 29" fill="none" xmlns="http://www.w3.org/2000/svg">
<path d="M7.27424 8.75296C6.20307 8.65329 5.23247 9.38618 5.03547 10.4434C4.83847 11.5007 5.48001 12.5338 6.51524 12.8263V17.0731C5.51549 17.3556 4.87733 18.332 5.01999 19.3607C5.16265 20.3895 6.04243 21.1554 7.08137 21.1554C8.1203 21.1554 9.00008 20.3895 9.14274 19.3607C9.28541 18.332 8.64725 17.3556 7.6475 17.0731V12.8286C8.54296 12.5747 9.16135 11.7579 9.16246 10.8274C9.16403 9.752 8.3454 8.85262 7.27424 8.75296Z" fill="white"/>
<path d="M11.9048 8H18.8297C19.33 8 19.7355 8.40541 19.7355 8.9055V12.7856C19.7355 13.2857 19.33 13.6911 18.8297 13.6911H11.9048C11.4045 13.6911 10.999 13.2857 10.999 12.7856V8.9055C10.999 8.40541 11.4045 8 11.9048 8Z" fill="white"/>
<path d="M11.9048 16.1789H21.0942C21.5945 16.1789 22 16.5843 22 17.0844V20.9645C22 21.4646 21.5945 21.87 21.0942 21.87H11.9048C11.4045 21.87 10.999 21.4646 10.999 20.9645V17.0844C10.999 16.5843 11.4045 16.1789 11.9048 16.1789Z" fill="white"/>
</svg>
