<svg width="44" height="44" viewBox="0 0 44 44" fill="none" xmlns="http://www.w3.org/2000/svg">
<path d="M34.4729 17.6933L23.2668 6.48722C22.9744 6.19489 22.4872 6 22 6C21.5366 6 21.1614 6.17628 20.7905 6.44502C20.7521 6.47278 20.7164 6.50401 20.683 6.53747L9.52713 17.6933C9.03991 18.1805 8.84502 18.9601 9.13735 19.6422C9.42968 20.3243 10.0144 20.7141 10.7939 20.7141H13.8147C13.9121 20.7141 14.107 20.8115 14.107 21.0064V29.3591C14.107 30.3335 14.8866 31.1131 15.861 31.1131H28.139C29.1134 31.1131 29.893 30.3335 29.893 29.3591V21.0064C29.893 20.909 29.9904 20.7141 30.1853 20.7141H33.2061C33.8882 20.7141 34.5703 20.3243 34.8626 19.6422C35.155 18.9601 34.9601 18.278 34.4729 17.6933Z" fill="#1A4A44"/>
<path d="M14.107 34.006C14.107 33.4537 14.5547 33.0011 15.107 33.0011H28.893C29.4453 33.0011 29.893 33.4537 29.893 34.006C29.893 34.5583 29.4453 35.0109 28.893 35.0109H15.107C14.5547 35.0109 14.107 34.5583 14.107 34.006Z" fill="#1A4A44"/>
<path d="M14.107 37.9951C14.107 37.4428 14.5547 36.9902 15.107 36.9902H28.893C29.4453 36.9902 29.893 37.4428 29.893 37.9951C29.893 38.5474 29.4453 39 28.893 39H15.107C14.5547 39 14.107 38.5474 14.107 37.9951Z" fill="#1A4A44"/>
</svg>
