<svg width="29" height="29" viewBox="0 0 29 29" fill="none" xmlns="http://www.w3.org/2000/svg">
<path d="M21.3022 17.2663C19.6388 16.6355 19.7393 16.8886 19.7393 15.7194C19.7393 14.9641 20.113 15.2413 20.35 13.8029C20.4424 13.2364 20.5188 13.6141 20.7156 12.706C20.8201 12.2319 20.6433 12.1958 20.6674 11.9708C20.6875 11.7458 20.7076 11.5409 20.7478 11.0788C20.796 10.5002 20.2817 8.98952 18.4415 8.98952C16.6013 8.98952 16.0871 10.5002 16.1353 11.0788C16.1714 11.5449 16.1955 11.7458 16.2156 11.9708C16.2357 12.1958 16.063 12.2319 16.1674 12.706C16.3643 13.6141 16.4406 13.2324 16.533 13.8029C16.7701 15.2413 17.1397 14.9681 17.1397 15.7194C17.1397 16.2578 17.2643 16.4828 16.5411 16.8243C16.758 16.9007 17.0112 16.9931 17.3165 17.1096C19.5022 17.9413 19.45 18.7489 19.5063 19.1306C19.5464 19.3918 19.5665 21.473 19.5746 22.2163H23.5C23.5 22.2163 23.5 18.9819 23.4397 18.6042C23.3955 18.3069 22.9978 17.9132 21.3022 17.2663Z" fill="white"/>
<path d="M18.558 22.2163C18.558 22.2163 18.558 21.6498 18.55 20.9949C18.542 20.2475 18.5219 19.3877 18.4817 19.1306C18.4214 18.7489 17.9071 18.2386 15.7254 17.4069C15.4241 17.2944 15.171 17.202 14.95 17.1217C13.6121 16.6475 13.7085 16.4909 13.7085 15.1931C13.7085 14.2167 14.1906 14.8516 14.496 12.9993C14.6165 12.2681 14.7129 12.7542 14.9661 11.585C15.1027 10.9743 14.8737 10.9261 14.9018 10.6328C14.9299 10.3395 14.958 10.0783 15.0063 9.47969C15.0705 8.73639 14.4076 6.78371 12.029 6.78371C9.65045 6.78371 8.99152 8.73237 9.05179 9.47969C9.1 10.0783 9.12813 10.3395 9.16027 10.6328C9.18839 10.9261 8.95938 10.9703 9.09598 11.585C9.35313 12.7542 9.44955 12.2681 9.57009 12.9993C9.87545 14.8516 10.3536 14.2167 10.3536 15.1931C10.3536 16.7038 10.4862 16.5913 8.33661 17.4069C6.15491 18.2386 5.64063 18.7489 5.58036 19.1306C5.5 19.6167 5.5 22.2163 5.5 22.2163H12.029H18.558Z" fill="white"/>
</svg>
